<svg width="30" height="30" viewBox="0 0 30 30" fill="none" xmlns="http://www.w3.org/2000/svg">
<mask id="mask0_344_5923" style="mask-type:alpha" maskUnits="userSpaceOnUse" x="0" y="0" width="30" height="30">
<rect width="29.6162" height="29.6162" rx="6.53639" fill="#14272C"/>
</mask>
<g mask="url(#mask0_344_5923)">
<rect width="29.6162" height="29.6162" rx="6.21821" fill="#00005B"/>
</g>
<g clip-path="url(#clip0_344_5923)">
<path d="M6.36573 2.05591H23.3302C25.9022 2.05591 27.9817 4.13542 27.9817 6.70745V23.0152C27.9817 25.5872 25.9022 27.6668 23.3302 27.6668H6.36573C3.7937 27.6668 1.71419 25.5872 1.71419 23.0152V6.70745C1.71419 4.13542 3.7937 2.05591 6.36573 2.05591Z" fill="#00005B"/>
<path d="M12.265 17.3787H8.19352L7.36172 19.9616C7.33983 20.0602 7.25227 20.1258 7.15377 20.1149H5.09614C4.97575 20.1149 4.94292 20.0492 4.97575 19.9179L8.49998 9.81581C8.53281 9.70636 8.56565 9.60786 8.60943 9.47652C8.65321 9.24668 8.6751 9.00589 8.6751 8.76511C8.66415 8.71038 8.70793 8.65566 8.76265 8.64471H8.79549H11.5974C11.674 8.64471 11.7287 8.67755 11.7396 8.73227L15.7345 19.896C15.7673 20.0164 15.7345 20.0711 15.625 20.0711H13.3376C13.261 20.082 13.1844 20.0273 13.1625 19.9507L12.265 17.3239V17.3787ZM8.82832 15.2007H11.6083C11.5426 14.9708 11.4551 14.6972 11.3566 14.4126C11.2581 14.1171 11.1596 13.7997 11.0611 13.4714C10.9516 13.1321 10.8531 12.8037 10.7437 12.4645C10.6342 12.1252 10.5357 11.8078 10.4482 11.4904C10.3606 11.1839 10.284 10.8993 10.2074 10.6367H10.1855C10.087 11.1073 9.96658 11.5779 9.81336 12.0486C9.64918 12.5739 9.48501 13.1211 9.30989 13.6684C9.16761 14.2266 8.9925 14.741 8.82832 15.2007V15.2007Z" fill="#9999FF"/>
<path d="M22.1811 16.3935H18.7116C18.7554 16.7328 18.8648 17.0721 19.0509 17.3676C19.2479 17.6631 19.5215 17.893 19.8499 18.0243C20.2877 18.2104 20.7692 18.3089 21.2508 18.2979C21.6339 18.287 22.0169 18.2541 22.3891 18.1775C22.7284 18.1338 23.0567 18.0462 23.3632 17.9258C23.4179 17.882 23.4507 17.9039 23.4507 18.0134V19.6879C23.4507 19.7317 23.4398 19.7755 23.4288 19.8193C23.4069 19.8521 23.385 19.874 23.3522 19.8959C23.002 20.0491 22.6408 20.1585 22.2577 20.2242C21.7433 20.3227 21.2289 20.3665 20.7036 20.3555C19.8718 20.3555 19.1713 20.2242 18.6022 19.9725C18.0659 19.7426 17.5952 19.3815 17.2231 18.9327C16.8729 18.5059 16.6212 18.0243 16.4679 17.499C16.3147 16.9845 16.2381 16.4482 16.2381 15.901C16.2381 15.31 16.3256 14.7299 16.5117 14.1608C16.6868 13.6135 16.9604 13.1101 17.3326 12.6613C17.6937 12.2236 18.1425 11.8733 18.6569 11.6216C19.1713 11.3699 19.7842 11.2823 20.4847 11.2823C21.0647 11.2714 21.6448 11.3808 22.1811 11.6216C22.6299 11.8186 23.0239 12.1141 23.3303 12.4972C23.6149 12.8693 23.8447 13.2852 23.987 13.7449C24.1293 14.1827 24.195 14.6314 24.195 15.0801C24.195 15.3428 24.184 15.5727 24.1731 15.7806C24.1512 15.9886 24.1402 16.1418 24.1293 16.2403C24.1183 16.3169 24.0527 16.3826 23.9761 16.3826C23.9104 16.3826 23.79 16.3935 23.6149 16.4045C23.4398 16.4264 23.2318 16.4373 22.9801 16.4373C22.7284 16.4373 22.4657 16.3935 22.1811 16.3935V16.3935ZM18.7116 14.7956H21.021C21.3055 14.7956 21.5135 14.7956 21.6448 14.7846C21.7324 14.7737 21.8199 14.7518 21.8965 14.6971V14.5876C21.8965 14.4453 21.8747 14.314 21.8309 14.1827C21.6339 13.5698 21.0538 13.1539 20.4081 13.1758C19.8061 13.1429 19.237 13.4603 18.9524 14.0076C18.8211 14.2593 18.7444 14.522 18.7116 14.7956Z" fill="#9999FF"/>
</g>
<defs>
<clipPath id="clip0_344_5923">
<rect x="2.05571" y="2.05585" width="25.6109" height="25.6109" rx="12.8054" fill="white"/>
</clipPath>
</defs>
</svg>
