<svg width="30" height="30" viewBox="0 0 30 30" fill="none" xmlns="http://www.w3.org/2000/svg">
<mask id="mask0_344_5919" style="mask-type:alpha" maskUnits="userSpaceOnUse" x="0" y="0" width="30" height="30">
<rect width="29.6162" height="29.6162" rx="6.53639" fill="#14272C"/>
</mask>
<g mask="url(#mask0_344_5919)">
<rect width="29.6162" height="29.6162" rx="6.21821" fill="#FEFEFE"/>
<rect x="3.82145" y="3.82141" width="22.0795" height="22.0795" rx="11.0397" fill="white"/>
<path d="M17.8051 18.2467C19.431 18.2467 20.749 16.9287 20.749 15.3028C20.749 13.6769 19.431 12.3589 17.8051 12.3589C16.1792 12.3589 14.8612 13.6769 14.8612 15.3028C14.8612 16.9287 16.1792 18.2467 17.8051 18.2467Z" fill="#19BCFE"/>
<path fill-rule="evenodd" clip-rule="evenodd" d="M11.9172 24.1345C12.698 24.1345 13.4468 23.8243 13.9989 23.2722C14.551 22.7202 14.8612 21.9714 14.8612 21.1906V18.2466H11.9172C11.1364 18.2466 10.3876 18.5568 9.83555 19.1089C9.28346 19.661 8.9733 20.4098 8.9733 21.1906C8.9733 21.9714 9.28346 22.7202 9.83555 23.2722C10.3876 23.8243 11.1364 24.1345 11.9172 24.1345V24.1345Z" fill="#09CF83"/>
<path fill-rule="evenodd" clip-rule="evenodd" d="M11.9172 18.2467H14.8612V12.3589H11.9172C11.1364 12.3589 10.3876 12.669 9.83555 13.2211C9.28346 13.7732 8.9733 14.522 8.9733 15.3028C8.9733 16.0836 9.28346 16.8324 9.83555 17.3845C10.3876 17.9366 11.1364 18.2467 11.9172 18.2467V18.2467Z" fill="#A259FF"/>
<path fill-rule="evenodd" clip-rule="evenodd" d="M11.9172 12.3588H14.8612V6.47095H11.9172C11.1364 6.47095 10.3876 6.78111 9.83555 7.3332C9.28346 7.8853 8.9733 8.6341 8.9733 9.41488C8.9733 10.1957 9.28346 10.9445 9.83555 11.4965C10.3876 12.0486 11.1364 12.3588 11.9172 12.3588V12.3588Z" fill="#F24E1E"/>
<path fill-rule="evenodd" clip-rule="evenodd" d="M17.8051 12.3588H14.8612V6.47095H17.8051C18.5859 6.47095 19.3347 6.78111 19.8868 7.3332C20.4388 7.8853 20.749 8.6341 20.749 9.41488C20.749 10.1957 20.4388 10.9445 19.8868 11.4965C19.3347 12.0486 18.5859 12.3588 17.8051 12.3588Z" fill="#FF7262"/>
</g>
</svg>
