<svg width="30" height="30" viewBox="0 0 30 30" fill="none" xmlns="http://www.w3.org/2000/svg">
<rect width="30" height="30" rx="6.22" fill="white"/>
<g clip-path="url(#clip0_344_6014)">
<path d="M23.7837 15.192C23.7837 14.542 23.7254 13.917 23.617 13.317H14.9837V16.867H19.917C19.7004 18.0087 19.0504 18.9753 18.0754 19.6253V21.9337H21.0504C22.7837 20.3337 23.7837 17.9837 23.7837 15.192Z" fill="#4285F4"/>
<path d="M14.9837 24.1503C17.4587 24.1503 19.5337 23.3336 21.0504 21.9336L18.0754 19.6253C17.2587 20.1753 16.217 20.5086 14.9837 20.5086C12.6004 20.5086 10.5754 18.9003 9.85035 16.7336H6.80035V19.1003C8.30869 22.092 11.4004 24.1503 14.9837 24.1503Z" fill="#34A853"/>
<path d="M9.85038 16.7254C9.66705 16.1754 9.55871 15.592 9.55871 14.9837C9.55871 14.3754 9.66705 13.792 9.85038 13.242V10.8754H6.80038C6.17538 12.1087 5.81705 13.5004 5.81705 14.9837C5.81705 16.467 6.17538 17.8587 6.80038 19.092L9.17538 17.242L9.85038 16.7254Z" fill="#FBBC05"/>
<path d="M14.9837 9.46702C16.3337 9.46702 17.5337 9.93368 18.492 10.8337L21.117 8.20868C19.5254 6.72535 17.4587 5.81702 14.9837 5.81702C11.4004 5.81702 8.30869 7.87535 6.80035 10.8753L9.85035 13.242C10.5754 11.0753 12.6004 9.46702 14.9837 9.46702Z" fill="#EA4335"/>
</g>
<defs>
<clipPath id="clip0_344_6014">
<rect width="20" height="20" fill="white" transform="translate(4.9837 4.98364)"/>
</clipPath>
</defs>
</svg>
