<svg width="30" height="30" viewBox="0 0 30 30" fill="none" xmlns="http://www.w3.org/2000/svg">
<mask id="mask0_344_5915" style="mask-type:alpha" maskUnits="userSpaceOnUse" x="0" y="0" width="30" height="30">
<rect width="29.6162" height="29.6162" rx="6.53639" fill="#14272C"/>
</mask>
<g mask="url(#mask0_344_5915)">
<path d="M0 10.4582C0 6.7975 0 4.96714 0.712424 3.56893C1.33909 2.33903 2.33903 1.33909 3.56893 0.712424C4.96714 0 6.7975 0 10.4582 0H19.158C22.8187 0 24.6491 0 26.0473 0.712424C27.2772 1.33909 28.2771 2.33903 28.9038 3.56893C29.6162 4.96714 29.6162 6.7975 29.6162 10.4582V19.158C29.6162 22.8187 29.6162 24.6491 28.9038 26.0473C28.2771 27.2772 27.2772 28.2771 26.0473 28.9038C24.6491 29.6162 22.8187 29.6162 19.158 29.6162H10.4582C6.7975 29.6162 4.96714 29.6162 3.56893 28.9038C2.33903 28.2771 1.33909 27.2772 0.712424 26.0473C0 24.6491 0 22.8187 0 19.158V10.4582Z" fill="#330000"/>
</g>
<g clip-path="url(#clip0_344_5915)">
<path d="M6.79987 2.20135H23.5715C26.1144 2.20135 28.1702 4.25724 28.1702 6.80004V22.9225C28.1702 25.4653 26.1144 27.5212 23.5715 27.5212H6.79987C4.25707 27.5212 2.20119 25.4653 2.20119 22.9225V6.80004C2.20119 4.25724 4.25707 2.20135 6.79987 2.20135Z" fill="#330000"/>
<path d="M14.7529 17.35H10.7277L9.90532 19.8928C9.88368 19.9902 9.79711 20.0551 9.69973 20.0443H7.66549C7.54646 20.0443 7.514 19.9793 7.54646 19.8495L11.0306 9.81895C11.0631 9.71075 11.0956 9.59172 11.1388 9.46188C11.1821 9.23465 11.2038 8.9966 11.2038 8.75855C11.1929 8.70445 11.2362 8.65035 11.2903 8.63953H11.3228H14.0928C14.1794 8.63953 14.2227 8.67199 14.2335 8.72609L18.183 19.8711C18.2154 19.9902 18.183 20.0443 18.0747 20.0443H15.8133C15.7375 20.0551 15.6618 20.001 15.6401 19.9252L14.7529 17.35V17.35ZM11.3553 15.1534H14.1036C14.0387 14.9262 13.9522 14.6557 13.8548 14.3744C13.7574 14.0822 13.66 13.7684 13.5626 13.4438C13.4544 13.1084 13.357 12.7838 13.2488 12.4483C13.1406 12.1129 13.0432 11.7991 12.9567 11.4853C12.8701 11.1823 12.7944 10.901 12.7186 10.6413H12.697C12.5996 11.1066 12.4806 11.5719 12.3291 12.0371C12.1668 12.5565 12.0045 13.0975 11.8314 13.6386C11.6799 14.1904 11.5176 14.699 11.3553 15.1534V15.1534Z" fill="#FF9A00"/>
<path d="M20.5959 10.5331C20.2388 10.5439 19.8926 10.4033 19.6329 10.1544C19.384 9.8839 19.2542 9.52683 19.265 9.15893C19.2542 8.79104 19.3948 8.44479 19.6545 8.19591C19.9142 7.94704 20.2605 7.8172 20.6175 7.8172C21.0395 7.8172 21.3641 7.94704 21.6022 8.19591C21.8402 8.45561 21.9701 8.80186 21.9593 9.15893C21.9701 9.52683 21.8402 9.8839 21.5806 10.1544C21.3317 10.4141 20.9638 10.5548 20.5959 10.5331ZM19.384 19.9253V11.5935C19.384 11.4853 19.4273 11.442 19.5247 11.442H21.6671C21.7645 11.442 21.8078 11.4961 21.8078 11.5935V19.9253C21.8078 20.0443 21.7645 20.0984 21.6671 20.0984H19.5463C19.4381 20.0984 19.384 20.0335 19.384 19.9253V19.9253Z" fill="#FF9A00"/>
</g>
<defs>
<clipPath id="clip0_344_5915">
<rect x="2.20119" y="2.20135" width="25.3198" height="25.3198" rx="12.6599" fill="white"/>
</clipPath>
</defs>
</svg>
