<svg width="30" height="30" viewBox="0 0 30 30" fill="none" xmlns="http://www.w3.org/2000/svg">
<rect width="30" height="30" rx="6.22" fill="white"/>
<path d="M5 23.6029C5.58824 23.6029 6.47059 22.3676 7.5 22.1912C8.08824 22.1912 8.52941 23.4265 10 23.6029C11.0294 23.6029 11.4706 22.3676 12.5 22.3676C13.5294 22.3676 13.9706 23.6029 15 23.6029C16.0294 23.6029 16.4706 22.3676 17.5 22.3676C18.5294 22.3676 18.9706 23.6029 20 23.6029C21.0294 23.6029 21.4706 22.3676 22.5 22.3676C23.5294 22.3676 23.9706 23.6029 25 23.6029" stroke="black" stroke-width="0.529412" stroke-linecap="round" stroke-linejoin="round"/>
<path d="M7.01177 22.3735L6.33824 21.0853L23.6912 19.9677C22.3265 21.2088 20.5735 22.2147 18.8 23.0382" stroke="black" stroke-width="0.529412" stroke-linecap="round" stroke-linejoin="round"/>
<path d="M13.2471 9.08533C16.2 9.98827 20.3294 14.35 21.7353 19.0383C20.9647 18.7353 20.3882 18.4265 19.3059 18.703C18.2588 14.8942 16.3853 11.2559 13.2471 9.08533Z" stroke="black" stroke-width="0.529412" stroke-linecap="round" stroke-linejoin="round"/>
<path d="M7.75588 7C11.5382 8.61765 16.7265 13.1206 17.6794 19.1176C13.3176 17.3588 9.99705 18.2971 7.68529 19.7235C11.2118 15.2412 9.62941 10.1441 7.75588 7Z" stroke="black" stroke-width="0.529412" stroke-linecap="round" stroke-linejoin="round"/>
</svg>
