<svg width="30" height="30" viewBox="0 0 30 30" fill="none" xmlns="http://www.w3.org/2000/svg">
<mask id="mask0_344_5911" style="mask-type:alpha" maskUnits="userSpaceOnUse" x="0" y="0" width="30" height="30">
<rect width="29.6162" height="29.6162" rx="6.53639" fill="#14272C"/>
</mask>
<g mask="url(#mask0_344_5911)">
<rect width="29.6162" height="29.6162" rx="6.53639" fill="#001E36"/>
</g>
<g clip-path="url(#clip0_344_5911)">
<path d="M6.16827 0.837036H24.2827C27.0291 0.837036 29.2495 3.11445 29.2495 5.93125V23.7909C29.2495 26.6077 27.0291 28.8852 24.2827 28.8852H6.16827C3.42189 28.8852 1.20142 26.6077 1.20142 23.7909V5.93125C1.20142 3.11445 3.42189 0.837036 6.16827 0.837036Z" fill="#001E36"/>
<path d="M7.51212 20.5069V8.17288C7.51212 8.08898 7.54718 8.04103 7.62898 8.04103C7.82766 8.04103 8.01464 8.04103 8.28344 8.02905C8.56392 8.01706 8.85609 8.01706 9.17163 8.00508C9.48717 7.99309 9.82609 7.99309 10.1884 7.9811C10.5507 7.96912 10.9013 7.96912 11.2519 7.96912C12.2102 7.96912 13.0049 8.08898 13.6593 8.34069C14.2437 8.54446 14.7813 8.88008 15.2253 9.32358C15.5993 9.70714 15.8915 10.1746 16.0785 10.69C16.2538 11.1935 16.3473 11.7089 16.3473 12.2483C16.3473 13.2791 16.1135 14.1301 15.6461 14.8014C15.1786 15.4726 14.5241 15.976 13.7645 16.2637C12.9698 16.5633 12.0933 16.6712 11.135 16.6712C10.8545 16.6712 10.6675 16.6712 10.5507 16.6592C10.4338 16.6473 10.2702 16.6473 10.0481 16.6473V20.4949C10.0598 20.5788 10.0014 20.6507 9.91958 20.6627C9.90789 20.6627 9.89621 20.6627 9.87283 20.6627H7.65236C7.55886 20.6627 7.51212 20.6147 7.51212 20.5069ZM10.0598 10.3544V14.3818C10.2234 14.3938 10.3754 14.4058 10.5156 14.4058H11.135C11.5908 14.4058 12.0466 14.3339 12.479 14.19C12.8529 14.0822 13.1802 13.8544 13.4373 13.5548C13.6827 13.2551 13.7996 12.8476 13.7996 12.3202C13.8113 11.9486 13.7178 11.577 13.5308 11.2534C13.3321 10.9417 13.0516 10.702 12.7127 10.5702C12.2803 10.3904 11.8128 10.3184 11.3337 10.3304C11.0298 10.3304 10.761 10.3304 10.539 10.3424C10.3052 10.3304 10.1416 10.3424 10.0598 10.3544Z" fill="#31A8FF"/>
<path d="M23.6397 13.6508C23.2891 13.459 22.9151 13.3272 22.5178 13.2433C22.0853 13.1474 21.6529 13.0875 21.2088 13.0875C20.9751 13.0755 20.7297 13.1114 20.5076 13.1714C20.3557 13.2073 20.2272 13.2912 20.1454 13.4111C20.0869 13.507 20.0519 13.6268 20.0519 13.7347C20.0519 13.8426 20.0986 13.9505 20.1687 14.0464C20.2739 14.1782 20.4141 14.2861 20.5661 14.37C20.8349 14.5138 21.1154 14.6457 21.3958 14.7655C22.0269 14.9813 22.6346 15.281 23.1956 15.6406C23.5812 15.8923 23.8968 16.2279 24.1188 16.6354C24.3058 17.019 24.3993 17.4385 24.3876 17.87C24.3993 18.4334 24.2357 18.9967 23.9319 19.4642C23.6046 19.9437 23.1488 20.3152 22.6229 20.531C22.0503 20.7827 21.3491 20.9146 20.5076 20.9146C19.9701 20.9146 19.4442 20.8666 18.9182 20.7587C18.5092 20.6868 18.1002 20.555 17.7262 20.3752C17.6444 20.3272 17.586 20.2433 17.5976 20.1474V18.0618C17.5976 18.0258 17.6093 17.9779 17.6444 17.9539C17.6795 17.93 17.7145 17.9419 17.7496 17.9659C18.2054 18.2416 18.6845 18.4334 19.1987 18.5532C19.6428 18.6731 20.1103 18.733 20.5778 18.733C21.0219 18.733 21.3374 18.6731 21.5478 18.5652C21.7347 18.4813 21.8633 18.2776 21.8633 18.0618C21.8633 17.894 21.7698 17.7382 21.5828 17.5823C21.3958 17.4265 21.0102 17.2467 20.4375 17.019C19.8415 16.8032 19.2922 16.5156 18.778 16.156C18.4157 15.8923 18.1119 15.5447 17.8898 15.1371C17.7028 14.7536 17.6093 14.334 17.621 13.9145C17.621 13.3991 17.7613 12.9077 18.0184 12.4642C18.3105 11.9847 18.7429 11.6011 19.2455 11.3614C19.7948 11.0737 20.4843 10.9419 21.314 10.9419C21.7932 10.9419 22.284 10.9779 22.7632 11.0498C23.1138 11.0977 23.4527 11.1936 23.7682 11.3255C23.815 11.3374 23.8617 11.3854 23.8851 11.4333C23.8968 11.4813 23.9085 11.5292 23.9085 11.5772V13.531C23.9085 13.5789 23.8851 13.6268 23.85 13.6508C23.7449 13.6748 23.6864 13.6748 23.6397 13.6508Z" fill="#31A8FF"/>
</g>
<defs>
<clipPath id="clip0_344_5911">
<rect x="1.20142" y="1.20142" width="27.3196" height="27.3196" rx="13.6598" fill="white"/>
</clipPath>
</defs>
</svg>
