<svg width="30" height="30" viewBox="0 0 30 30" fill="none" xmlns="http://www.w3.org/2000/svg">
<mask id="mask0_344_5927" style="mask-type:alpha" maskUnits="userSpaceOnUse" x="0" y="0" width="30" height="30">
<rect width="29.6162" height="29.6162" rx="6.53639" fill="#14272C"/>
</mask>
<g mask="url(#mask0_344_5927)">
<rect width="29.6162" height="29.6162" rx="6.53639" fill="#00005B"/>
</g>
<g clip-path="url(#clip0_344_5927)">
<path d="M6.70733 2.05585H23.6718C26.2438 2.05585 28.3233 4.13536 28.3233 6.70739V23.0152C28.3233 25.5872 26.2438 27.6667 23.6718 27.6667H6.70733C4.1353 27.6667 2.05579 25.5872 2.05579 23.0152V6.70739C2.05579 4.13536 4.1353 2.05585 6.70733 2.05585Z" fill="#00005B"/>
<path d="M8.29422 20.0055V8.73233C8.29422 8.65571 8.32705 8.61193 8.40367 8.61193C8.58973 8.61193 8.76485 8.61193 9.01658 8.60099C9.27925 8.59004 9.55287 8.59004 9.84838 8.5791C10.1439 8.56815 10.4613 8.56815 10.8006 8.55721C11.1399 8.54626 11.4682 8.54626 11.7966 8.54626C12.694 8.54626 13.4383 8.65571 14.0512 8.88555C14.5984 9.07162 15.1019 9.37807 15.5178 9.78303C15.868 10.1333 16.1416 10.5601 16.3168 11.0307C16.4809 11.4904 16.5685 11.961 16.5685 12.4536C16.5685 13.3948 16.3496 14.1719 15.9118 14.7848C15.474 15.3977 14.8611 15.8574 14.1497 16.1201C13.4054 16.3937 12.5846 16.4922 11.6871 16.4922C11.4244 16.4922 11.2493 16.4922 11.1399 16.4812C11.0304 16.4703 10.8772 16.4703 10.6692 16.4703V19.9836C10.6802 20.0602 10.6255 20.1259 10.5489 20.1368H10.5051H8.42556C8.338 20.1368 8.29422 20.093 8.29422 19.9945V20.0055ZM10.6802 10.7352V14.4127C10.8334 14.4236 10.9757 14.4346 11.107 14.4346H11.6871C12.114 14.4346 12.5408 14.3689 12.9458 14.2376C13.296 14.1391 13.6025 13.9311 13.8432 13.6575C14.0731 13.3839 14.1825 13.0117 14.1825 12.5302C14.1935 12.1909 14.1059 11.8516 13.9308 11.5561C13.7447 11.2715 13.4821 11.0526 13.1647 10.9322C12.7597 10.7681 12.3219 10.7024 11.8732 10.7133C11.5886 10.7133 11.3369 10.7133 11.1289 10.7243C10.91 10.7133 10.7568 10.7243 10.6802 10.7352V10.7352Z" fill="#9999FF"/>
<path d="M18.1446 11.3809H20.06C20.1694 11.3809 20.257 11.4575 20.2898 11.556C20.3226 11.6436 20.3445 11.7311 20.3555 11.8296C20.3774 11.9391 20.3992 12.0595 20.4102 12.1689C20.4211 12.2893 20.4321 12.4206 20.4321 12.5629C20.7604 12.1798 21.1544 11.8624 21.6032 11.6217C22.1066 11.3371 22.6867 11.1948 23.2668 11.1948C23.3434 11.1839 23.4091 11.2386 23.42 11.3152V11.359V13.4932C23.42 13.5808 23.3653 13.6136 23.2449 13.6136C22.8509 13.6027 22.4459 13.6355 22.0629 13.7231C21.7455 13.7887 21.439 13.8872 21.1435 14.0186C20.9355 14.1171 20.7385 14.2484 20.5853 14.4235V20.0054C20.5853 20.1148 20.5415 20.1586 20.443 20.1586H18.2869C18.1993 20.1696 18.1227 20.1148 18.1118 20.0273V19.9835V13.9201C18.1118 13.6574 18.1118 13.3838 18.1008 13.0992C18.0899 12.8146 18.0899 12.5301 18.0789 12.2455C18.0789 11.9938 18.0571 11.753 18.0352 11.5013C18.0242 11.4465 18.0571 11.3918 18.1118 11.3809C18.1118 11.3699 18.1337 11.3699 18.1446 11.3809V11.3809Z" fill="#9999FF"/>
</g>
<defs>
<clipPath id="clip0_344_5927">
<rect x="2.05579" y="2.05585" width="25.6109" height="25.6109" rx="12.8054" fill="white"/>
</clipPath>
</defs>
</svg>
